<svg width="215" height="215" viewBox="0 0 215 215" fill="none" xmlns="http://www.w3.org/2000/svg">
<path d="M12.6757 163.774V202.194H50.7029C52.3839 202.194 53.9959 202.868 55.1845 204.069C56.3731 205.27 57.0408 206.899 57.0408 208.597C57.0408 210.295 56.3731 211.924 55.1845 213.125C53.9959 214.325 52.3839 215 50.7029 215H6.33787C4.65696 215 3.04493 214.325 1.85635 213.125C0.667765 211.924 0 210.295 0 208.597V163.774C0 162.076 0.667765 160.447 1.85635 159.247C3.04493 158.046 4.65696 157.371 6.33787 157.371C8.01878 157.371 9.63081 158.046 10.8194 159.247C12.008 160.447 12.6757 162.076 12.6757 163.774Z" fill="white"/>
<path d="M164.298 202.194H202.325V163.774C202.325 162.076 202.993 160.447 204.181 159.247C205.37 158.046 206.982 157.371 208.663 157.371C210.344 157.371 211.956 158.046 213.144 159.247C214.333 160.447 215.001 162.076 215.001 163.774V208.597C215.001 210.295 214.333 211.924 213.144 213.125C211.956 214.325 210.344 215 208.663 215H164.298C162.617 215 161.005 214.325 159.816 213.125C158.628 211.924 157.96 210.295 157.96 208.597C157.96 206.899 158.628 205.27 159.816 204.069C161.005 202.868 162.617 202.194 164.298 202.194Z" fill="white"/>
<path d="M202.325 12.8064H164.298C162.617 12.8064 161.005 12.1318 159.816 10.9309C158.628 9.7301 157.96 8.10144 157.96 6.40321C157.96 4.70497 158.628 3.07632 159.816 1.87548C161.005 0.674649 162.617 0 164.298 0H208.663C210.344 0 211.956 0.674649 213.144 1.87548C214.333 3.07632 215.001 4.70497 215.001 6.40321V51.2257C215.001 52.9239 214.333 54.5526 213.144 55.7534C211.956 56.9543 210.344 57.6289 208.663 57.6289C206.982 57.6289 205.37 56.9543 204.181 55.7534C202.993 54.5526 202.325 52.9239 202.325 51.2257V12.8064Z" fill="white"/>
<path d="M12.6757 12.8064V51.2257C12.6757 52.9239 12.008 54.5526 10.8194 55.7534C9.63081 56.9543 8.01878 57.6289 6.33787 57.6289C4.65696 57.6289 3.04493 56.9543 1.85635 55.7534C0.667765 54.5526 0 52.9239 0 51.2257V6.40321C0 4.70497 0.667765 3.07632 1.85635 1.87548C3.04493 0.674649 4.65696 0 6.33787 0H50.7029C52.3839 0 53.9959 0.674649 55.1845 1.87548C56.3731 3.07632 57.0408 4.70497 57.0408 6.40321C57.0408 8.10144 56.3731 9.7301 55.1845 10.9309C53.9959 12.1318 52.3839 12.8064 50.7029 12.8064H12.6757Z" fill="white"/>
<path d="M121.206 116.066L127.244 109.788L124.532 106.967L118.877 112.846C115.549 109.079 110.956 106.784 106.048 106.438C101.139 106.091 96.29 107.718 92.5023 110.982C88.7146 114.247 86.2778 118.9 85.6955 123.979C85.1131 129.058 86.4298 134.176 89.3734 138.275C92.3169 142.374 96.6624 145.14 101.512 146.003C106.361 146.865 111.344 145.758 115.431 142.91C119.517 140.061 122.395 135.69 123.47 130.698C124.545 125.706 123.734 120.476 121.206 116.088V116.066ZM104.773 142.293C102.215 142.291 99.697 141.624 97.4493 140.352C95.2017 139.081 93.2954 137.245 91.9037 135.013C90.5121 132.78 89.6792 130.222 89.4809 127.569C89.2826 124.917 89.7251 122.255 90.7681 119.826C91.8112 117.396 93.4218 115.277 95.4535 113.659C97.4851 112.042 99.8734 110.978 102.401 110.565C104.929 110.152 107.516 110.402 109.927 111.293C112.338 112.184 114.496 113.687 116.206 115.666L102.903 129.498L98.5061 124.916L95.783 127.748L102.903 135.139L118.431 118.93C119.65 121.361 120.245 124.078 120.16 126.819C120.074 129.559 119.309 132.23 117.94 134.574C116.572 136.917 114.644 138.854 112.345 140.197C110.046 141.54 107.452 142.243 104.815 142.239L104.773 142.293Z" fill="white"/>
<path d="M151.378 75.3608V79.2371H162.898V90.8763H166.735V75.3608H151.378Z" fill="white"/>
<path d="M162.898 173.443H151.378V177.32H166.735V161.804H162.898V173.443Z" fill="white"/>
<path d="M49.909 161.804H46.0723V177.32H61.4294V173.443H49.909V161.804Z" fill="white"/>
<path d="M49.909 79.2371H61.4294V75.3608H46.0723V90.8763H49.909V79.2371Z" fill="white"/>
<path d="M54.8477 168.454H157.96V84.2268H54.8477V168.454ZM58.6743 88.0628H154.133V164.618H58.6743V88.0628Z" fill="white"/>
<path d="M76.7849 90.8763H61.4277V106.392H76.7849V90.8763ZM72.9482 102.515H65.2644V94.7525H72.9482V102.515Z" fill="white"/>
<path d="M136.021 106.392H151.378V90.8763H136.021V106.392ZM139.868 94.7525H147.541V102.515H139.868V94.7525Z" fill="white"/>
<path d="M136.021 161.804H151.378V146.289H136.021V161.804ZM139.868 150.165H147.541V157.928H139.868V150.165Z" fill="white"/>
<path d="M124.326 146.289H120.663V157.928C120.666 158.957 121.053 159.943 121.739 160.669C122.426 161.396 123.356 161.804 124.326 161.804H131.632V157.928H124.326V146.289Z" fill="white"/>
<path d="M116.277 157.371H109.695V161.804H116.277V157.371Z" fill="white"/>
<path d="M100.918 150.722H92.1426V154.422H100.918V161.804H105.306V154.422C105.306 153.443 104.844 152.503 104.021 151.809C103.199 151.115 102.083 150.724 100.918 150.722Z" fill="white"/>
<path d="M116.277 150.722H109.695V152.938H116.277V150.722Z" fill="white"/>
<path d="M140.408 137.423H131.629C131.053 137.423 130.483 137.523 129.951 137.718C129.419 137.913 128.936 138.198 128.529 138.558C128.122 138.918 127.799 139.345 127.579 139.816C127.359 140.286 127.245 140.79 127.245 141.299V152.938H131.629V141.299H140.408V137.423Z" fill="white"/>
<path d="M146.99 138.165H142.603V141.856H146.99C147.567 141.856 148.137 141.76 148.669 141.575C149.202 141.389 149.685 141.117 150.093 140.775C150.5 140.432 150.824 140.025 151.044 139.577C151.265 139.129 151.378 138.649 151.378 138.165V130.773H146.99V138.165Z" fill="white"/>
<path d="M89.2236 146.289H85.5605V157.928C85.5632 158.957 85.9503 159.943 86.637 160.669C87.3236 161.396 88.2538 161.804 89.2236 161.804H96.5299V157.928H89.2236V146.289Z" fill="white"/>
<path d="M65.3746 146.289H61.4277V157.928C61.4306 158.955 61.8473 159.94 62.5868 160.666C63.3264 161.392 64.3287 161.801 65.3746 161.804H81.1726V157.928H65.3746V146.289Z" fill="white"/>
<path d="M77.5213 149.609H70.2051V152.938H77.5213C78.4911 152.936 79.4203 152.584 80.1051 151.96C80.7899 151.336 81.1745 150.49 81.1745 149.609V146.289H77.5213V149.609Z" fill="white"/>
<path d="M70.1954 146.289H74.591V141.856C74.5879 140.679 74.1234 139.551 73.2994 138.72C72.4753 137.889 71.3591 137.423 70.1954 137.423H61.4277V141.856H70.1954V146.289Z" fill="white"/>
<path d="M81.1729 135.206H76.7852V141.856H81.1729V135.206Z" fill="white"/>
<path d="M65.8115 135.206H74.591V130.773H65.8115V121.907H61.4277V130.773C61.4277 131.949 61.8896 133.076 62.7117 133.908C63.5338 134.739 64.6489 135.206 65.8115 135.206Z" fill="white"/>
<path d="M77.5213 121.907H70.2051V126.34H77.5213V130.773H81.1745V126.34C81.1745 125.164 80.7896 124.037 80.1045 123.206C79.4194 122.374 78.4902 121.907 77.5213 121.907Z" fill="white"/>
<path d="M65.8155 110.825H61.4277V117.474H65.8155V110.825Z" fill="white"/>
<path d="M70.2051 114.145V117.474H73.8681V114.145H81.1745V110.825H73.8681C72.8983 110.825 71.9681 111.174 71.2814 111.797C70.5948 112.419 70.2077 113.264 70.2051 114.145Z" fill="white"/>
<path d="M89.9484 106.392V102.515H85.5547V90.8763H81.1729V102.515C81.176 103.543 81.6387 104.527 82.4598 105.253C83.2808 105.98 84.3935 106.389 85.5547 106.392H89.9484Z" fill="white"/>
<path d="M93.6067 98.258C93.6067 99.2378 93.9915 100.178 94.677 100.871C95.3624 101.565 96.2925 101.956 97.2631 101.959H100.92V98.258H97.2631V94.5671C97.2605 93.589 96.8744 92.6517 96.1893 91.9601C95.5041 91.2686 94.5756 90.8789 93.6067 90.8763H89.9502V94.5671H93.6067V98.258Z" fill="white"/>
<path d="M105.3 101.959H109.693V94.5671C109.69 93.5873 109.226 92.6486 108.402 91.9567C107.579 91.2648 106.463 90.8763 105.3 90.8763H100.918V94.5671H105.3V101.959Z" fill="white"/>
<path d="M125.051 98.258V90.8763H120.655V98.258H111.888V101.959H120.655C121.821 101.959 122.939 101.569 123.764 100.875C124.588 100.181 125.051 99.2395 125.051 98.258Z" fill="white"/>
<path d="M116.275 90.8763H111.888V95.3093H116.275V90.8763Z" fill="white"/>
<path d="M131.633 90.8763H127.245V95.3093H131.633V90.8763Z" fill="white"/>
<path d="M131.633 99.7422H127.245V101.959H131.633V99.7422Z" fill="white"/>
<path d="M147.72 121.907H144.064C143.584 121.907 143.108 122.022 142.664 122.245C142.221 122.468 141.818 122.794 141.478 123.206C141.139 123.617 140.869 124.106 140.686 124.644C140.502 125.182 140.407 125.758 140.407 126.34V135.206H144.064V126.34H147.72C148.69 126.34 149.62 125.873 150.306 125.042C150.991 124.21 151.377 123.083 151.377 121.907V117.474H147.72V121.907Z" fill="white"/>
<path d="M140.407 114.145V117.474H144.064V114.145H151.377V110.825H144.064C143.094 110.825 142.164 111.175 141.478 111.797C140.792 112.42 140.407 113.264 140.407 114.145Z" fill="white"/>
<path d="M136.021 130.773H127.245V135.206H136.021V130.773Z" fill="white"/>
<path d="M131.633 126.34H136.021V121.019C136.021 120.079 135.558 119.177 134.736 118.512C133.913 117.848 132.797 117.474 131.633 117.474H127.245V121.019H131.633V126.34Z" fill="white"/>
<path d="M136.021 108.608H131.633V113.041H136.021V108.608Z" fill="white"/>
<path d="M54.9 45.0004H52.6V43.4404C53.2267 43.4404 53.7267 43.3871 54.1 43.2804C54.4867 43.1738 54.7933 43.0004 55.02 42.7604C55.2467 42.5071 55.4467 42.1471 55.62 41.6804H57.1V55.6804H54.9V45.0004ZM66.1309 55.8804C65.0776 55.8804 64.2709 55.5804 63.7109 54.9804C63.1643 54.3804 62.8909 53.5338 62.8909 52.4404V44.9204C62.8909 43.8271 63.1643 42.9804 63.7109 42.3804C64.2709 41.7804 65.0776 41.4804 66.1309 41.4804C67.1843 41.4804 67.9843 41.7804 68.5309 42.3804C69.0909 42.9804 69.3709 43.8271 69.3709 44.9204V46.4004H67.2909V44.7804C67.2909 43.9138 66.9243 43.4804 66.1909 43.4804C65.4576 43.4804 65.0909 43.9138 65.0909 44.7804V52.6004C65.0909 53.4538 65.4576 53.8804 66.1909 53.8804C66.9243 53.8804 67.2909 53.4538 67.2909 52.6004V50.4604H69.3709V52.4404C69.3709 53.5338 69.0909 54.3804 68.5309 54.9804C67.9843 55.5804 67.1843 55.8804 66.1309 55.8804ZM73.9063 55.8804C72.8263 55.8804 71.9996 55.5738 71.4263 54.9604C70.8529 54.3471 70.5662 53.4804 70.5662 52.3604V45.0004C70.5662 43.8804 70.8529 43.0138 71.4263 42.4004C71.9996 41.7871 72.8263 41.4804 73.9063 41.4804C74.9863 41.4804 75.8129 41.7871 76.3863 42.4004C76.9596 43.0138 77.2463 43.8804 77.2463 45.0004V52.3604C77.2463 53.4804 76.9596 54.3471 76.3863 54.9604C75.8129 55.5738 74.9863 55.8804 73.9063 55.8804ZM73.9063 53.8804C74.6663 53.8804 75.0462 53.4204 75.0462 52.5004V44.8604C75.0462 43.9404 74.6663 43.4804 73.9063 43.4804C73.1463 43.4804 72.7663 43.9404 72.7663 44.8604V52.5004C72.7663 53.4204 73.1463 53.8804 73.9063 53.8804ZM78.7341 41.6804H81.4941L83.6341 50.0604H83.6741V41.6804H85.6341V55.6804H83.3741L80.7341 45.4604H80.6941V55.6804H78.7341V41.6804ZM87.2692 41.6804H93.0892V43.6804H89.4692V47.5804H92.3092V49.5804H89.4692V55.6804H87.2692V41.6804ZM94.1442 41.6804H96.3442V55.6804H94.1442V41.6804ZM97.9919 41.6804H101.252C102.385 41.6804 103.212 41.9471 103.732 42.4804C104.252 43.0004 104.512 43.8071 104.512 44.9004V45.7604C104.512 47.2138 104.032 48.1338 103.072 48.5204V48.5604C103.605 48.7204 103.979 49.0471 104.192 49.5404C104.419 50.0338 104.532 50.6938 104.532 51.5204V53.9804C104.532 54.3804 104.545 54.7071 104.572 54.9604C104.599 55.2004 104.665 55.4404 104.772 55.6804H102.532C102.452 55.4538 102.399 55.2404 102.372 55.0404C102.345 54.8404 102.332 54.4804 102.332 53.9604V51.4004C102.332 50.7604 102.225 50.3138 102.012 50.0604C101.812 49.8071 101.459 49.6804 100.952 49.6804H100.192V55.6804H97.9919V41.6804ZM100.992 47.6804C101.432 47.6804 101.759 47.5671 101.972 47.3404C102.199 47.1138 102.312 46.7338 102.312 46.2004V45.1204C102.312 44.6138 102.219 44.2471 102.032 44.0204C101.859 43.7938 101.579 43.6804 101.192 43.6804H100.192V47.6804H100.992ZM106.058 41.6804H109.198L110.598 51.7004H110.638L112.038 41.6804H115.178V55.6804H113.098V45.0804H113.058L111.458 55.6804H109.618L108.018 45.0804H107.978V55.6804H106.058V41.6804ZM118.52 41.6804H121.5L123.78 55.6804H121.58L121.18 52.9004V52.9404H118.68L118.28 55.6804H116.24L118.52 41.6804ZM120.92 51.0404L119.94 44.1204H119.9L118.94 51.0404H120.92ZM125.649 43.6804H123.349V41.6804H130.149V43.6804H127.849V55.6804H125.649V43.6804ZM131.215 41.6804H133.415V55.6804H131.215V41.6804ZM138.242 55.8804C137.162 55.8804 136.336 55.5738 135.762 54.9604C135.189 54.3471 134.902 53.4804 134.902 52.3604V45.0004C134.902 43.8804 135.189 43.0138 135.762 42.4004C136.336 41.7871 137.162 41.4804 138.242 41.4804C139.322 41.4804 140.149 41.7871 140.722 42.4004C141.296 43.0138 141.582 43.8804 141.582 45.0004V52.3604C141.582 53.4804 141.296 54.3471 140.722 54.9604C140.149 55.5738 139.322 55.8804 138.242 55.8804ZM138.242 53.8804C139.002 53.8804 139.382 53.4204 139.382 52.5004V44.8604C139.382 43.9404 139.002 43.4804 138.242 43.4804C137.482 43.4804 137.102 43.9404 137.102 44.8604V52.5004C137.102 53.4204 137.482 53.8804 138.242 53.8804ZM143.07 41.6804H145.83L147.97 50.0604H148.01V41.6804H149.97V55.6804H147.71L145.07 45.4604H145.03V55.6804H143.07V41.6804Z" fill="white"/>
</svg>
