<svg width="215" height="215" viewBox="0 0 215 215" fill="none" xmlns="http://www.w3.org/2000/svg">
<g clip-path="url(#clip0_109_183)">
<path d="M12.6471 164.412V202.353H50.5882C52.2653 202.353 53.8738 203.019 55.0597 204.205C56.2455 205.391 56.9118 206.999 56.9118 208.676C56.9118 210.354 56.2455 211.962 55.0597 213.148C53.8738 214.334 52.2653 215 50.5882 215H6.32353C4.64643 215 3.03801 214.334 1.85212 213.148C0.66623 211.962 0 210.354 0 208.676V164.412C0 162.735 0.66623 161.126 1.85212 159.94C3.03801 158.754 4.64643 158.088 6.32353 158.088C8.00063 158.088 9.60905 158.754 10.7949 159.94C11.9808 161.126 12.6471 162.735 12.6471 164.412Z" fill="white"/>
<path d="M164.411 202.353H202.353V164.412C202.353 162.735 203.019 161.126 204.205 159.94C205.391 158.754 206.999 158.088 208.676 158.088C210.353 158.088 211.962 158.754 213.148 159.94C214.333 161.126 215 162.735 215 164.412V208.676C215 210.354 214.333 211.962 213.148 213.148C211.962 214.334 210.353 215 208.676 215H164.411C162.734 215 161.126 214.334 159.94 213.148C158.754 211.962 158.088 210.354 158.088 208.676C158.088 206.999 158.754 205.391 159.94 204.205C161.126 203.019 162.734 202.353 164.411 202.353Z" fill="white"/>
<path d="M202.353 12.6471H164.411C162.734 12.6471 161.126 11.9809 159.94 10.795C158.754 9.60909 158.088 8.00063 158.088 6.32353C158.088 4.64643 158.754 3.03797 159.94 1.85208C161.126 0.66619 162.734 0 164.411 0H208.676C210.353 0 211.962 0.66619 213.148 1.85208C214.333 3.03797 215 4.64643 215 6.32353V50.5882C215 52.2653 214.333 53.8738 213.148 55.0597C211.962 56.2456 210.353 56.9118 208.676 56.9118C206.999 56.9118 205.391 56.2456 204.205 55.0597C203.019 53.8738 202.353 52.2653 202.353 50.5882V12.6471Z" fill="white"/>
<path d="M12.6471 12.6471V50.5882C12.6471 52.2653 11.9808 53.8738 10.7949 55.0597C9.60905 56.2456 8.00063 56.9118 6.32353 56.9118C4.64643 56.9118 3.03801 56.2456 1.85212 55.0597C0.66623 53.8738 0 52.2653 0 50.5882V6.32353C0 4.64643 0.66623 3.03797 1.85212 1.85208C3.03801 0.66619 4.64643 0 6.32353 0H50.5882C52.2653 0 53.8738 0.66619 55.0597 1.85208C56.2455 3.03797 56.9118 4.64643 56.9118 6.32353C56.9118 8.00063 56.2455 9.60909 55.0597 10.795C53.8738 11.9809 52.2653 12.6471 50.5882 12.6471H12.6471Z" fill="white"/>
<path d="M77.4323 179.483C99.1624 183.944 121.572 183.944 143.302 179.483C143.688 179.405 144.054 179.251 144.38 179.031C144.707 178.812 144.986 178.53 145.203 178.202C145.421 177.874 145.571 177.507 145.647 177.121C145.722 176.735 145.72 176.337 145.642 175.952C145.564 175.567 145.411 175.2 145.191 174.874C144.971 174.548 144.689 174.268 144.361 174.051C144.034 173.834 143.666 173.683 143.28 173.608C142.894 173.533 142.497 173.534 142.111 173.612C121.126 177.892 99.4927 177.892 78.5073 173.612C76.8066 173.273 75.244 172.439 74.0158 171.214C72.7876 169.99 71.9486 168.43 71.6041 166.73C67.3357 145.744 67.3357 124.113 71.6041 103.126C71.9486 101.426 72.7876 99.8665 74.0158 98.642C75.244 97.4176 76.8066 96.5832 78.5073 96.2439C99.4917 91.9544 121.127 91.9544 142.111 96.2439C143.812 96.5832 145.375 97.4176 146.603 98.642C147.831 99.8665 148.67 101.426 149.015 103.126C150.638 111.262 151.638 119.51 152.008 127.798L149.563 125.469C149.278 125.198 148.942 124.986 148.575 124.844C148.207 124.703 147.816 124.635 147.423 124.645C147.029 124.654 146.641 124.741 146.282 124.901C145.922 125.061 145.597 125.29 145.326 125.575C145.055 125.86 144.842 126.196 144.701 126.563C144.559 126.93 144.491 127.321 144.501 127.715C144.511 128.108 144.598 128.496 144.758 128.856C144.917 129.215 145.146 129.54 145.431 129.811L153.114 137.094C153.686 137.64 154.451 137.937 155.242 137.919C156.032 137.901 156.784 137.571 157.33 136.999L164.623 129.327C165.171 128.751 165.468 127.981 165.448 127.186C165.428 126.392 165.094 125.638 164.518 125.09C163.942 124.542 163.172 124.245 162.378 124.265C161.583 124.285 160.829 124.619 160.281 125.195L157.973 127.619C157.615 119.01 156.593 110.44 154.917 101.988C154.341 99.1285 152.933 96.5028 150.871 94.4404C148.809 92.3779 146.183 90.9705 143.324 90.3948C121.549 85.9472 99.101 85.9472 77.3269 90.3948C74.4801 90.979 71.8692 92.3908 69.8218 94.4532C67.7743 96.5157 66.3815 99.1369 65.8181 101.988C61.3809 123.763 61.3809 146.209 65.8181 167.984C66.4056 170.832 67.8215 173.443 69.8878 175.489C71.9541 177.534 74.5789 178.924 77.4323 179.483Z" fill="white"/>
<path d="M130.359 154.663C132.094 154.663 133.789 154.149 135.231 153.185C136.673 152.222 137.797 150.852 138.461 149.25C139.124 147.648 139.298 145.885 138.96 144.184C138.621 142.483 137.786 140.92 136.56 139.694C135.334 138.468 133.771 137.633 132.07 137.294C130.369 136.956 128.606 137.129 127.004 137.793C125.402 138.457 124.032 139.581 123.069 141.023C122.105 142.465 121.591 144.16 121.591 145.894C121.589 147.046 121.815 148.187 122.255 149.252C122.696 150.316 123.341 151.283 124.156 152.098C124.971 152.912 125.938 153.558 127.002 153.998C128.067 154.439 129.208 154.664 130.359 154.663ZM130.359 142.142C131.104 142.142 131.832 142.363 132.451 142.777C133.07 143.191 133.552 143.779 133.837 144.468C134.121 145.156 134.195 145.913 134.049 146.643C133.903 147.373 133.543 148.043 133.016 148.569C132.489 149.095 131.818 149.452 131.087 149.596C130.356 149.74 129.6 149.664 128.912 149.378C128.225 149.092 127.638 148.608 127.226 147.988C126.814 147.367 126.595 146.639 126.597 145.894C126.6 144.898 126.997 143.944 127.703 143.241C128.408 142.537 129.363 142.142 130.359 142.142Z" fill="white"/>
<path d="M116.585 123.362C116.585 121.627 116.071 119.932 115.107 118.49C114.144 117.048 112.774 115.924 111.172 115.26C109.57 114.597 107.807 114.423 106.106 114.761C104.405 115.1 102.842 115.935 101.616 117.161C100.39 118.387 99.5547 119.95 99.2163 121.651C98.878 123.352 99.0517 125.115 99.7153 126.717C100.379 128.319 101.503 129.689 102.945 130.652C104.387 131.616 106.082 132.13 107.816 132.13C108.968 132.132 110.109 131.906 111.174 131.466C112.238 131.025 113.205 130.379 114.02 129.565C114.834 128.75 115.48 127.783 115.92 126.719C116.361 125.654 116.586 124.513 116.585 123.362ZM104.065 123.362C104.065 122.617 104.285 121.889 104.699 121.27C105.113 120.651 105.701 120.169 106.39 119.884C107.078 119.6 107.835 119.526 108.565 119.672C109.295 119.818 109.965 120.178 110.491 120.705C111.017 121.232 111.375 121.903 111.519 122.634C111.662 123.364 111.586 124.121 111.3 124.809C111.014 125.496 110.53 126.083 109.91 126.495C109.29 126.907 108.561 127.126 107.816 127.124C106.82 127.121 105.866 126.724 105.163 126.018C104.459 125.313 104.065 124.358 104.065 123.362Z" fill="white"/>
<path d="M104.065 153.409C104.412 153.41 104.754 153.339 105.071 153.201C105.389 153.063 105.674 152.861 105.91 152.608L135.947 120.063C136.364 119.57 136.575 118.934 136.536 118.29C136.496 117.645 136.21 117.04 135.736 116.601C135.262 116.162 134.636 115.924 133.991 115.934C133.345 115.945 132.728 116.204 132.268 116.658L102.232 149.203C102.006 149.444 101.831 149.726 101.715 150.035C101.6 150.343 101.546 150.671 101.558 151C101.57 151.329 101.647 151.653 101.784 151.952C101.921 152.252 102.116 152.521 102.358 152.745C102.821 153.176 103.432 153.414 104.065 153.409Z" fill="white"/>
<path d="M77.5791 150.711H85.0303V126.766H79.1073V124.068C81.54 123.705 83.8842 122.893 86.021 121.675H89.1828V150.711H95.9068V154.21H77.5791V150.711Z" fill="white"/>
<path d="M53.9 47.2168H51.6V45.6568C52.2267 45.6568 52.7267 45.6035 53.1 45.4969C53.4867 45.3902 53.7933 45.2169 54.02 44.9769C54.2467 44.7235 54.4467 44.3635 54.62 43.8968H56.1V57.8969H53.9V47.2168ZM62.0309 43.8968H65.2709C66.3643 43.8968 67.1843 44.1902 67.7309 44.7769C68.2776 45.3635 68.5509 46.2235 68.5509 47.3569V48.7368C68.5509 49.8702 68.2776 50.7302 67.7309 51.3169C67.1843 51.9035 66.3643 52.1969 65.2709 52.1969H64.2309V57.8969H62.0309V43.8968ZM65.2709 50.1969C65.6309 50.1969 65.8976 50.0969 66.0709 49.8969C66.2576 49.6969 66.3509 49.3569 66.3509 48.8768V47.2168C66.3509 46.7368 66.2576 46.3968 66.0709 46.1968C65.8976 45.9969 65.6309 45.8969 65.2709 45.8969H64.2309V50.1969H65.2709ZM69.7458 43.8968H75.7458V45.8969H71.9458V49.5969H74.9658V51.5969H71.9458V55.8969H75.7458V57.8969H69.7458V43.8968ZM77.0114 43.8968H80.2714C81.4047 43.8968 82.2314 44.1635 82.7514 44.6969C83.2714 45.2168 83.5314 46.0235 83.5314 47.1168V47.9769C83.5314 49.4302 83.0514 50.3502 82.0914 50.7369V50.7769C82.6247 50.9369 82.9981 51.2635 83.2114 51.7569C83.4381 52.2502 83.5514 52.9102 83.5514 53.7369V56.1969C83.5514 56.5969 83.5647 56.9235 83.5914 57.1769C83.6181 57.4169 83.6847 57.6569 83.7914 57.8969H81.5514C81.4714 57.6702 81.4181 57.4569 81.3914 57.2569C81.3647 57.0569 81.3514 56.6969 81.3514 56.1769V53.6169C81.3514 52.9769 81.2447 52.5302 81.0314 52.2769C80.8314 52.0235 80.4781 51.8969 79.9714 51.8969H79.2114V57.8969H77.0114V43.8968ZM80.0114 49.8969C80.4514 49.8969 80.7781 49.7835 80.9914 49.5569C81.2181 49.3302 81.3314 48.9502 81.3314 48.4168V47.3369C81.3314 46.8302 81.2381 46.4635 81.0514 46.2369C80.8781 46.0102 80.5981 45.8969 80.2114 45.8969H79.2114V49.8969H80.0114ZM88.1778 58.0969C87.1245 58.0969 86.3178 57.7969 85.7578 57.1969C85.2111 56.5969 84.9378 55.7502 84.9378 54.6569V47.1368C84.9378 46.0435 85.2111 45.1969 85.7578 44.5969C86.3178 43.9968 87.1245 43.6968 88.1778 43.6968C89.2311 43.6968 90.0311 43.9968 90.5778 44.5969C91.1378 45.1969 91.4178 46.0435 91.4178 47.1368V48.6169H89.3378V46.9969C89.3378 46.1302 88.9711 45.6969 88.2378 45.6969C87.5045 45.6969 87.1378 46.1302 87.1378 46.9969V54.8169C87.1378 55.6702 87.5045 56.0969 88.2378 56.0969C88.9711 56.0969 89.3378 55.6702 89.3378 54.8169V52.6769H91.4178V54.6569C91.4178 55.7502 91.1378 56.5969 90.5778 57.1969C90.0311 57.7969 89.2311 58.0969 88.1778 58.0969ZM92.7341 43.8968H98.7341V45.8969H94.9341V49.5969H97.9541V51.5969H94.9341V55.8969H98.7341V57.8969H92.7341V43.8968ZM99.9997 43.8968H102.76L104.9 52.2769H104.94V43.8968H106.9V57.8969H104.64L102 47.6768H101.96V57.8969H99.9997V43.8968ZM110.255 45.8969H107.955V43.8968H114.755V45.8969H112.455V57.8969H110.255V45.8969ZM119.023 43.8968H124.843V45.8969H121.223V49.7968H124.063V51.7969H121.223V57.8969H119.023V43.8968ZM125.898 43.8968H128.098V57.8969H125.898V43.8968ZM131.686 50.7369L129.266 43.8968H131.586L133.066 48.4168H133.106L134.626 43.8968H136.706L134.286 50.7369L136.826 57.8969H134.506L132.906 53.0169H132.866L131.226 57.8969H129.146L131.686 50.7369ZM137.871 43.8968H143.871V45.8969H140.071V49.5969H143.091V51.5969H140.071V55.8969H143.871V57.8969H137.871V43.8968ZM145.136 43.8968H148.496C149.59 43.8968 150.41 44.1902 150.956 44.7769C151.503 45.3635 151.776 46.2235 151.776 47.3569V54.4369C151.776 55.5702 151.503 56.4302 150.956 57.0169C150.41 57.6035 149.59 57.8969 148.496 57.8969H145.136V43.8968ZM148.456 55.8969C148.816 55.8969 149.09 55.7902 149.276 55.5769C149.476 55.3635 149.576 55.0169 149.576 54.5369V47.2569C149.576 46.7769 149.476 46.4302 149.276 46.2168C149.09 46.0035 148.816 45.8969 148.456 45.8969H147.336V55.8969H148.456ZM156.465 43.8968H162.285V45.8969H158.665V49.7968H161.505V51.7969H158.665V57.8969H156.465V43.8968ZM163.34 43.8968H169.34V45.8969H165.54V49.5969H168.56V51.5969H165.54V55.8969H169.34V57.8969H163.34V43.8968ZM170.605 43.8968H176.605V45.8969H172.805V49.5969H175.825V51.5969H172.805V55.8969H176.605V57.8969H170.605V43.8968Z" fill="white"/>
</g>
<defs>
<clipPath id="clip0_109_183">
<rect width="215" height="215" fill="white"/>
</clipPath>
</defs>
</svg>
