<svg width="215" height="215" viewBox="0 0 215 215" fill="none" xmlns="http://www.w3.org/2000/svg">
<g clip-path="url(#clip0_109_197)">
<path d="M12.6471 164.412V202.353H50.5882C52.2653 202.353 53.8737 203.019 55.0596 204.205C56.2455 205.391 56.9118 206.999 56.9118 208.676C56.9118 210.354 56.2455 211.962 55.0596 213.148C53.8737 214.334 52.2653 215 50.5882 215H6.32353C4.64643 215 3.03804 214.334 1.85215 213.148C0.666254 211.962 0 210.354 0 208.676V164.412C0 162.735 0.666254 161.126 1.85215 159.94C3.03804 158.754 4.64643 158.088 6.32353 158.088C8.00063 158.088 9.60902 158.754 10.7949 159.94C11.9808 161.126 12.6471 162.735 12.6471 164.412Z" fill="white"/>
<path d="M164.411 202.353H202.353V164.412C202.353 162.735 203.019 161.126 204.205 159.94C205.391 158.754 206.999 158.088 208.676 158.088C210.353 158.088 211.962 158.754 213.148 159.94C214.333 161.126 215 162.735 215 164.412V208.676C215 210.354 214.333 211.962 213.148 213.148C211.962 214.334 210.353 215 208.676 215H164.411C162.734 215 161.126 214.334 159.94 213.148C158.754 211.962 158.088 210.354 158.088 208.676C158.088 206.999 158.754 205.391 159.94 204.205C161.126 203.019 162.734 202.353 164.411 202.353Z" fill="white"/>
<path d="M202.353 12.6471H164.411C162.734 12.6471 161.126 11.9809 159.94 10.795C158.754 9.60909 158.088 8.00063 158.088 6.32353C158.088 4.64643 158.754 3.03797 159.94 1.85208C161.126 0.66619 162.734 0 164.411 0H208.676C210.353 0 211.962 0.66619 213.148 1.85208C214.333 3.03797 215 4.64643 215 6.32353V50.5882C215 52.2653 214.333 53.8738 213.148 55.0597C211.962 56.2456 210.353 56.9118 208.676 56.9118C206.999 56.9118 205.391 56.2456 204.205 55.0597C203.019 53.8738 202.353 52.2653 202.353 50.5882V12.6471Z" fill="white"/>
<path d="M12.6471 12.6471V50.5882C12.6471 52.2653 11.9808 53.8738 10.7949 55.0597C9.60902 56.2456 8.00063 56.9118 6.32353 56.9118C4.64643 56.9118 3.03804 56.2456 1.85215 55.0597C0.666254 53.8738 0 52.2653 0 50.5882V6.32353C0 4.64643 0.666254 3.03797 1.85215 1.85208C3.03804 0.66619 4.64643 0 6.32353 0H50.5882C52.2653 0 53.8737 0.66619 55.0596 1.85208C56.2455 3.03797 56.9118 4.64643 56.9118 6.32353C56.9118 8.00063 56.2455 9.60909 55.0596 10.795C53.8737 11.9809 52.2653 12.6471 50.5882 12.6471H12.6471Z" fill="white"/>
<path d="M87.116 90.279C87.8497 90.2016 88.5914 90.2516 89.3081 90.4266C92.4699 91.0484 95.6317 91.6386 98.8778 92.2498C100.05 92.4713 101.255 92.4498 102.419 92.1865C105.507 91.5963 108.627 91.1327 111.704 90.5319C112.553 90.3321 113.424 90.2365 114.297 90.2474C114.781 90.4601 115.226 90.7522 115.614 91.1115C119.187 94.2733 122.812 97.2981 126.406 100.407C127.555 101.461 129.02 101.999 130.137 103.053C133.225 105.856 136.355 108.607 139.433 111.421C140.361 112.336 141.402 113.129 142.531 113.781C145.089 115.187 147.643 116.592 150.193 117.997C151.197 118.499 152.175 119.051 153.123 119.652C153.587 119.979 153.671 120.569 153.882 121.043C158.721 119.001 163.922 117.958 169.174 117.976C172.146 117.886 175.12 118.066 178.059 118.513C178.066 119.27 177.999 120.025 177.859 120.769C176.995 121.645 176.061 122.449 175.066 123.172C173.126 124.784 171.166 126.334 169.259 128.009C172.02 130.602 175.045 132.9 177.806 135.503C175.066 137.516 172.241 139.413 169.469 141.373C172.094 143.428 174.929 145.23 177.5 147.37C174.781 149.646 171.915 151.712 169.216 153.999C170.882 155.506 172.568 156.982 174.233 158.468C175.647 159.586 176.956 160.832 178.143 162.188C173.02 162.711 167.848 162.519 162.777 161.619C160.104 161.069 157.465 160.365 154.873 159.511C154.464 160.402 154.218 161.358 154.145 162.336C153.945 165.74 153.829 169.144 153.513 172.538C149.476 174.645 145.482 176.89 141.446 179.051C140.556 179.539 139.772 180.198 139.138 180.99C136.945 183.562 134.637 186.028 132.445 188.599C132.041 189.114 131.566 189.568 131.033 189.948C130.251 190.021 129.464 189.982 128.693 189.832C124.214 189.2 119.724 188.684 115.245 188.062C114.116 187.899 112.966 187.942 111.852 188.188C108.995 188.736 106.129 189.242 103.262 189.79C102.553 189.945 101.826 190.005 101.102 189.969C100.452 189.618 99.8641 189.163 99.3626 188.62C96.4748 185.827 93.4817 183.14 90.5834 180.347C89.2608 179.223 87.7521 178.339 86.1253 177.733C83.3218 176.437 80.6238 174.93 77.7993 173.686C77.0932 173.339 76.2184 173.043 75.9339 172.232C75.3429 170.936 74.5769 169.726 73.6574 168.638C70.4957 164.422 67.3339 160.122 64.1721 155.886C61.382 157.77 58.3274 159.23 55.1084 160.217C50.3548 161.617 45.4249 162.327 40.4694 162.325C38.6567 162.325 36.8439 162.199 35.0312 162.156C35.0312 161.988 35.0312 161.661 35.0312 161.492C37.8241 158.879 40.8066 156.465 43.5785 153.83C40.8804 151.522 37.9927 149.457 35.2736 147.18C37.9084 145.157 40.6697 143.302 43.2834 141.257C40.6064 139.149 37.6765 137.368 34.9679 135.281C37.8241 132.794 40.8804 130.528 43.7049 127.988C41.2071 125.88 38.6461 123.773 36.0851 121.665C35.736 121.391 35.418 121.08 35.1366 120.737C34.9941 119.998 34.9305 119.245 34.9468 118.493C36.872 118.151 38.8204 117.958 40.7751 117.913C47.6466 117.67 54.7395 118.556 60.8839 121.812C61.9007 120.457 62.6191 118.902 62.9917 117.249C63.5398 113.525 64.0737 109.805 64.5937 106.088C67.8397 104.623 71.1069 103.211 74.3635 101.798C75.8496 101.134 77.5253 100.66 78.5792 99.3849C81.0349 96.6763 83.5432 94.0099 85.9567 91.2907C86.2978 90.8965 86.6833 90.5428 87.1055 90.2368M86.8947 95.2535C84.7868 97.5827 82.679 99.8275 80.5711 102.125C81.8042 103.78 83.206 105.287 84.5339 106.889C85.8618 108.491 87.2425 110.156 88.6758 111.726C92.0378 108.68 95.4419 105.698 98.7829 102.631C99.1659 102.263 99.6122 101.966 100.1 101.756C101.224 101.716 102.349 101.808 103.452 102.03C106.614 102.568 109.881 102.873 113.074 103.379C114.421 103.606 115.796 103.606 117.142 103.379C119.25 103.042 121.358 102.722 123.466 102.42C121 100.07 118.291 97.9832 115.751 95.7067C115.027 94.9707 114.204 94.3393 113.306 93.8307C112.694 93.7585 112.075 93.7869 111.472 93.915C108.226 94.4314 105.001 95.1481 101.744 95.6118C100.436 95.7774 99.1086 95.7097 97.8238 95.4116C95.5157 94.9479 93.1866 94.6106 90.889 94.1048C90.1134 93.9069 89.3179 93.7972 88.5177 93.778C87.8635 94.1445 87.29 94.6391 86.8314 95.2324M75.4912 104.876C73.3307 105.93 71.0753 106.731 68.9464 107.827C71.2334 110.989 73.6363 113.95 76.0076 116.996C78.1155 116.321 80.1601 115.405 82.2574 114.667C83.3113 114.266 84.3652 113.803 85.4192 113.307C83.4589 110.778 81.2667 108.449 79.2643 105.93C78.7615 105.21 78.1244 104.595 77.3883 104.117C76.7131 104.285 76.059 104.529 75.4386 104.844M98.4035 107.426C95.7792 109.777 93.1339 112.116 90.5412 114.488C89.3417 115.419 87.9753 116.113 86.5153 116.532C83.4167 117.702 80.3709 119.009 77.2618 120.137C77.1353 124.036 77.1459 127.936 77.0932 131.835C77.0627 132.821 76.7874 133.785 76.2922 134.639C74.8167 137.474 73.552 140.404 72.0765 143.249C71.6061 144.041 71.2512 144.896 71.0226 145.789C71.2381 146.529 71.5499 147.238 71.9501 147.897C73.6574 150.964 75.2172 154.126 76.9246 157.203C77.5045 158.166 77.8644 159.246 77.9785 160.365C78.2841 163.716 78.5792 167.078 78.9586 170.43C81.6883 171.874 84.5128 173.138 87.2741 174.551C89.0447 175.478 91.0155 176.153 92.4593 177.596C95.1679 180.157 97.9292 182.676 100.627 185.269C101.05 185.699 101.542 186.055 102.082 186.323C102.659 186.321 103.234 186.261 103.8 186.144C106.61 185.617 109.396 185.104 112.157 184.605C113.964 184.428 115.788 184.531 117.564 184.911C120.873 185.332 124.175 185.768 127.471 186.217C128.098 186.317 128.733 186.36 129.368 186.344C129.944 185.976 130.454 185.513 130.875 184.974C132.835 182.676 134.89 180.463 136.851 178.176C137.549 177.333 138.409 176.637 139.38 176.131C142.089 174.709 144.755 173.212 147.464 171.768C148.345 171.352 149.188 170.858 149.982 170.293C150.138 169.747 150.227 169.184 150.246 168.617C150.372 166.172 150.509 163.734 150.657 161.303C150.727 160.295 151.003 159.312 151.468 158.415C153.176 154.821 154.757 151.164 156.475 147.57C156.702 147.12 156.868 146.641 156.97 146.147C156.819 145.58 156.596 145.035 156.306 144.524C155.189 142.416 154.135 140.203 153.049 138.053C152.555 137.135 152.23 136.136 152.09 135.102C151.532 130.686 150.963 126.281 150.299 121.886C146.937 120.063 143.617 118.187 140.255 116.374C138.903 115.545 137.66 114.55 136.555 113.413C133.994 111.094 131.402 108.817 128.862 106.478C128.379 105.996 127.837 105.579 127.249 105.234C126.542 105.206 125.834 105.266 125.141 105.413C122.38 105.877 119.629 106.309 116.879 106.762C115.776 106.941 114.651 106.941 113.548 106.762C109.86 106.267 106.171 105.708 102.503 105.245C101.959 105.155 101.404 105.155 100.859 105.245C99.9492 105.872 99.0958 106.577 98.3087 107.352M67.0282 111.073C66.6699 113.318 66.3959 115.573 66.0797 117.807C65.7635 120.042 64.4461 121.654 63.5714 123.541C65.3183 125.076 66.8403 126.85 68.0927 128.81C69.6062 131.405 70.6047 134.268 71.0332 137.242C72.1819 135.039 73.7417 132.847 73.6363 130.254C73.6363 127.493 73.6363 124.742 73.7522 122.002C73.8006 121.231 73.7367 120.457 73.5625 119.704C73.2 118.982 72.7467 118.309 72.2136 117.702C70.443 115.531 68.7883 113.265 67.0282 111.083M40.7751 121.159C43.3677 123.477 46.1606 125.554 48.7848 127.83C45.9814 130.254 43.0726 132.541 40.2375 134.913C43.0621 137.02 45.992 138.928 48.8165 140.994C46.1922 143.186 43.2518 144.967 40.638 147.18C43.2307 149.372 46.0447 151.29 48.553 153.588C46.6138 155.338 44.6429 157.055 42.6827 158.773C47.6356 158.534 52.5162 157.487 57.1319 155.675C60.2827 154.42 63.0331 152.333 65.089 149.636C66.7249 147.309 67.6412 144.553 67.7238 141.71C64.6675 143.028 61.7902 144.693 58.8076 146.158C58.3526 146.417 57.8443 146.569 57.3216 146.601C57.0933 146.564 56.8747 146.482 56.679 146.359C56.4833 146.235 56.3145 146.074 56.1826 145.884C56.0507 145.694 55.9586 145.48 55.9116 145.253C55.8647 145.027 55.8639 144.793 55.9094 144.567C55.981 144.337 56.0995 144.125 56.2574 143.943C56.4152 143.762 56.6089 143.615 56.8263 143.513C58.5652 142.459 60.5361 141.826 62.2223 140.677C62.5572 140.454 62.7912 140.108 62.874 139.714C62.9567 139.32 62.8817 138.909 62.665 138.57C61.9062 137.727 60.6942 137.463 59.9459 136.62C59.801 136.379 59.719 136.105 59.7076 135.824C59.6962 135.543 59.7557 135.264 59.8807 135.012C60.0056 134.76 60.1919 134.544 60.4225 134.383C60.6531 134.221 60.9205 134.121 61.2001 134.09C61.9613 134.162 62.7037 134.369 63.3922 134.702C64.6991 135.25 65.9954 135.756 67.3339 136.241C66.8984 133.774 65.9151 131.437 64.4566 129.401C62.2801 126.568 59.3242 124.433 55.9516 123.256C51.0778 121.574 45.9228 120.858 40.7751 121.148M158.582 122.655C157.063 123.136 155.571 123.699 154.114 124.342C154.388 127.503 154.883 130.75 155.357 133.943C155.952 134.057 156.53 134.249 157.075 134.512C157.325 134.7 157.509 134.963 157.6 135.262C157.691 135.561 157.684 135.882 157.581 136.177C157.335 136.691 157.042 137.182 156.706 137.642C157.429 139.233 158.242 140.781 159.141 142.279C159.678 143.217 160.775 143.555 161.512 144.282C161.68 144.538 161.761 144.841 161.743 145.146C161.726 145.451 161.612 145.743 161.417 145.979C160.802 146.945 160.252 147.952 159.773 148.993C158.719 151.459 157.518 153.883 156.464 156.37C160.727 158.009 165.241 158.9 169.807 159.005C167.867 157.298 165.876 155.643 164 153.862C166.624 151.68 169.375 149.646 171.988 147.454C169.311 145.346 166.424 143.534 163.799 141.363C166.561 139.255 169.564 137.368 172.347 135.25C169.638 132.731 166.719 130.465 164 127.978C166.603 125.712 169.375 123.636 171.967 121.349C167.539 121.16 163.109 121.662 158.835 122.835M66.7015 153.567C67.9873 155.464 69.4312 157.256 70.7802 159.111C72.1292 160.965 73.5837 163 75.1224 164.844C75.1286 163.499 75.0228 162.156 74.8062 160.828C74.4873 159.645 73.9936 158.515 73.3413 157.477C71.9712 154.979 70.717 152.418 69.3258 149.931C68.4757 151.153 67.5903 152.362 66.6699 153.556L66.7015 153.567Z" fill="white"/>
<path d="M99.0676 114.445C99.876 114.182 100.732 114.1 101.576 114.203C101.833 114.293 102.063 114.448 102.243 114.653C102.424 114.857 102.548 115.105 102.605 115.371C102.663 115.638 102.65 115.915 102.57 116.175C102.489 116.436 102.343 116.671 102.145 116.859C101.605 117.193 101.009 117.425 100.385 117.544C96.4334 118.483 92.7581 120.339 89.6561 122.961C88.6022 123.783 87.8118 124.826 86.7789 125.638C86.5563 125.787 86.2987 125.875 86.0316 125.895C85.7645 125.915 85.4968 125.865 85.2547 125.75C85.0127 125.636 84.8045 125.46 84.6505 125.241C84.4964 125.022 84.4019 124.766 84.376 124.5C84.3761 124.13 84.4573 123.765 84.6139 123.43C84.7705 123.094 84.9987 122.798 85.2823 122.561C89.0343 118.627 93.8079 115.817 99.0676 114.445Z" fill="white"/>
<path d="M88.1592 137.716C89.7401 137.716 91.3209 137.716 92.9018 137.716C93.1548 141.932 93.5026 146.042 93.8293 150.194C94.1806 146.021 94.6373 141.858 95.1994 137.706C96.8856 137.706 98.5825 137.706 100.279 137.706C100.532 141.921 101.017 146.221 101.207 150.5C101.418 148.961 101.533 147.412 101.649 145.863C101.85 143.133 102.197 140.414 102.577 137.706C104.126 137.706 105.739 137.706 107.256 137.706C106.719 143.903 105.812 150.057 105.148 156.244C103.093 156.244 101.049 156.318 98.9935 156.244C98.5087 153.082 98.066 149.92 97.518 146.759C97.1597 149.92 96.6116 153.082 96.2533 156.244C94.2087 156.318 92.1641 156.307 90.1089 156.244C89.466 150.057 88.7599 143.892 88.1592 137.716Z" fill="white"/>
<path d="M108.11 137.727C110.819 137.653 113.527 137.727 116.247 137.727V141.373L113 141.436C113 142.596 113 143.734 113 144.893C114.054 144.893 115.024 144.893 116.036 144.893C116.036 146.042 116.036 147.201 116.036 148.361C115.056 148.361 114.076 148.361 113.095 148.361C113.032 149.678 113.043 150.995 113.095 152.313C114.244 152.313 115.393 152.313 116.542 152.313C116.542 153.556 116.542 154.8 116.542 156.044C113.749 156.044 110.956 156.044 108.163 156.044C108.11 149.984 108.174 143.85 108.11 137.727Z" fill="white"/>
<path d="M116.985 137.695C120.505 137.695 124.025 137.695 127.524 137.695C127.524 138.903 127.524 140.115 127.524 141.331C126.586 141.331 125.648 141.331 124.71 141.394C124.636 146.337 124.71 151.28 124.71 156.223C123.076 156.223 121.453 156.223 119.82 156.223C119.756 151.28 119.82 146.337 119.82 141.394C118.882 141.394 117.944 141.394 117.016 141.32C116.911 140.172 116.911 138.907 116.985 137.695Z" fill="white"/>
<path d="M128.483 137.726C130.142 137.67 131.796 137.67 133.447 137.726C133.447 139.95 133.447 142.163 133.447 144.387H134.902C134.902 142.163 134.902 139.95 134.902 137.726C136.483 137.726 138.064 137.726 139.655 137.726C139.655 143.902 139.655 150.082 139.655 156.265C138.032 156.307 136.409 156.307 134.786 156.265C134.786 153.725 134.786 151.174 134.786 148.624C134.301 148.624 133.806 148.624 133.321 148.624C133.268 151.185 133.321 153.736 133.321 156.297C131.74 156.297 130.159 156.297 128.568 156.297C128.533 150.085 128.504 143.895 128.483 137.726Z" fill="white"/>
<path d="M59.82 41.6804H62.96L64.36 51.7004H64.4L65.8 41.6804H68.94V55.6804H66.86V45.0804H66.82L65.22 55.6804H63.38L61.78 45.0804H61.74V55.6804H59.82V41.6804ZM70.5817 41.6804H72.7817V55.6804H70.5817V41.6804ZM76.3694 48.5204L73.9494 41.6804H76.2694L77.7494 46.2004H77.7894L79.3094 41.6804H81.3894L78.9694 48.5204L81.5094 55.6804H79.1894L77.5894 50.8004H77.5494L75.9094 55.6804H73.8294L76.3694 48.5204ZM85.7575 41.6804H91.7575V43.6804H87.9575V47.3804H90.9775V49.3804H87.9575V53.6804H91.7575V55.6804H85.7575V41.6804ZM94.7431 43.6804H92.4431V41.6804H99.2431V43.6804H96.9431V55.6804H94.7431V43.6804ZM100.308 41.6804H102.508V47.3804H104.868V41.6804H107.068V55.6804H104.868V49.3804H102.508V55.6804H100.308V41.6804ZM114.21 55.8804C113.41 55.8804 112.803 55.6071 112.39 55.0604C111.977 54.5138 111.77 53.7204 111.77 52.6804V51.2204C111.77 50.4871 111.897 49.8738 112.15 49.3804C112.403 48.8871 112.817 48.5271 113.39 48.3004V48.2604C112.87 48.0471 112.483 47.7071 112.23 47.2404C111.99 46.7604 111.87 46.1471 111.87 45.4004V45.1404C111.87 44.0071 112.143 43.1471 112.69 42.5604C113.237 41.9738 114.057 41.6804 115.15 41.6804H117.67V43.6804H115.19C114.83 43.6804 114.55 43.7871 114.35 44.0004C114.163 44.2138 114.07 44.5604 114.07 45.0404V45.9004C114.07 46.4338 114.177 46.8138 114.39 47.0404C114.617 47.2671 114.95 47.3804 115.39 47.3804H116.25V45.8204H118.41V47.3804H119.03V49.3804H118.41V53.9804C118.41 54.3804 118.423 54.7071 118.45 54.9604C118.477 55.2004 118.543 55.4404 118.65 55.6804H116.45C116.343 55.3871 116.277 55.0204 116.25 54.5804H116.21C115.97 55.0204 115.69 55.3471 115.37 55.5604C115.063 55.7738 114.677 55.8804 114.21 55.8804ZM115.03 53.8804C115.723 53.8804 116.13 53.4604 116.25 52.6204V49.3804H115.41C114.903 49.3804 114.537 49.5204 114.31 49.8004C114.083 50.0671 113.97 50.5204 113.97 51.1604V52.5804C113.97 53.0471 114.063 53.3804 114.25 53.5804C114.437 53.7804 114.697 53.8804 115.03 53.8804ZM122.933 41.6804H125.053L126.033 52.4404H126.073L127.113 41.6804H129.513L130.553 52.4404H130.593L131.573 41.6804H133.473L132.053 55.6804H129.313L128.313 46.2404H128.273L127.273 55.6804H124.353L122.933 41.6804ZM134.586 41.6804H140.586V43.6804H136.786V47.3804H139.806V49.3804H136.786V53.6804H140.586V55.6804H134.586V41.6804ZM143.571 43.6804H141.271V41.6804H148.071V43.6804H145.771V55.6804H143.571V43.6804ZM149.136 41.6804H151.336V47.3804H153.696V41.6804H155.896V55.6804H153.696V49.3804H151.336V55.6804H149.136V41.6804Z" fill="white"/>
</g>
<defs>
<clipPath id="clip0_109_197">
<rect width="215" height="215" fill="white"/>
</clipPath>
</defs>
</svg>
