<svg width="215" height="215" viewBox="0 0 215 215" fill="none" xmlns="http://www.w3.org/2000/svg">
<path d="M12.6471 164.412V202.353H50.5882C52.2653 202.353 53.8738 203.019 55.0597 204.205C56.2455 205.391 56.9118 206.999 56.9118 208.676C56.9118 210.354 56.2455 211.962 55.0597 213.148C53.8738 214.334 52.2653 215 50.5882 215H6.32353C4.64643 215 3.03801 214.334 1.85211 213.148C0.666222 211.962 0 210.354 0 208.676V164.412C0 162.735 0.666222 161.126 1.85211 159.94C3.03801 158.755 4.64643 158.088 6.32353 158.088C8.00063 158.088 9.60905 158.755 10.7949 159.94C11.9808 161.126 12.6471 162.735 12.6471 164.412Z" fill="white"/>
<path d="M164.411 202.353H202.353V164.412C202.353 162.735 203.019 161.126 204.205 159.94C205.391 158.755 206.999 158.088 208.676 158.088C210.353 158.088 211.962 158.755 213.148 159.94C214.333 161.126 215 162.735 215 164.412V208.676C215 210.354 214.333 211.962 213.148 213.148C211.962 214.334 210.353 215 208.676 215H164.411C162.734 215 161.126 214.334 159.94 213.148C158.754 211.962 158.088 210.354 158.088 208.676C158.088 206.999 158.754 205.391 159.94 204.205C161.126 203.019 162.734 202.353 164.411 202.353Z" fill="white"/>
<path d="M202.353 12.6471H164.411C162.734 12.6471 161.126 11.9808 159.94 10.7949C158.754 9.60902 158.088 8.00063 158.088 6.32353C158.088 4.64643 158.754 3.03804 159.94 1.85215C161.126 0.666254 162.734 0 164.411 0H208.676C210.353 0 211.962 0.666254 213.148 1.85215C214.333 3.03804 215 4.64643 215 6.32353V50.5882C215 52.2653 214.333 53.8737 213.148 55.0596C211.962 56.2455 210.353 56.9118 208.676 56.9118C206.999 56.9118 205.391 56.2455 204.205 55.0596C203.019 53.8737 202.353 52.2653 202.353 50.5882V12.6471Z" fill="white"/>
<path d="M12.6471 12.6471V50.5882C12.6471 52.2653 11.9808 53.8737 10.7949 55.0596C9.60905 56.2455 8.00063 56.9118 6.32353 56.9118C4.64643 56.9118 3.03801 56.2455 1.85211 55.0596C0.666222 53.8737 0 52.2653 0 50.5882V6.32353C0 4.64643 0.666222 3.03804 1.85211 1.85215C3.03801 0.666254 4.64643 0 6.32353 0H50.5882C52.2653 0 53.8738 0.666254 55.0597 1.85215C56.2455 3.03804 56.9118 4.64643 56.9118 6.32353C56.9118 8.00063 56.2455 9.60902 55.0597 10.7949C53.8738 11.9808 52.2653 12.6471 50.5882 12.6471H12.6471Z" fill="white"/>
<path d="M69.559 177.375C72.8334 177.364 76.0338 176.4 78.7695 174.601C81.5052 172.802 83.6579 170.245 84.9647 167.243C86.2716 164.24 86.6761 160.922 86.1289 157.694C85.5816 154.466 84.1064 151.467 81.8831 149.063C79.6599 146.659 76.7848 144.954 73.609 144.157C70.4331 143.36 67.0939 143.504 63.9989 144.573C60.9039 145.642 58.187 147.589 56.1799 150.176C54.1728 152.763 52.9623 155.879 52.6963 159.142H75.0183V161.977H52.6963C53.0637 166.191 55.0013 170.113 58.1247 172.965C61.2482 175.817 65.3294 177.391 69.559 177.375Z" fill="white"/>
<path d="M94.8525 173.138H104.875C109.355 173.138 112.548 170.493 112.548 166.161C112.634 164.685 112.157 163.232 111.211 162.095C110.266 160.958 108.924 160.223 107.457 160.038V159.922C108.718 159.688 109.851 159.003 110.642 157.994C111.434 156.985 111.83 155.722 111.757 154.442C111.757 150.437 108.785 147.928 104.517 147.928H94.8525V173.138ZM109.07 154.768C109.07 157.35 107.204 158.984 104.159 158.984H97.54V150.205H104.159C107.204 150.205 109.07 151.817 109.07 154.421V154.768ZM109.86 166.224C109.86 169.028 107.816 170.851 104.485 170.851H97.54V161.25H104.454C107.784 161.25 109.86 162.999 109.86 165.898V166.224Z" fill="white"/>
<path d="M131.414 173.138H134.28L125.902 147.928H122.635L114.361 173.138H117.091L119.199 166.298H129.222L131.414 173.138ZM124.173 150.711H124.363L128.579 164.064H119.947L124.173 150.711Z" fill="white"/>
<path d="M145.579 173.644C151.101 173.644 154.716 170.672 154.716 166.193C154.716 162.041 151.997 160.07 147.876 159.385L144.219 158.784C141.426 158.31 139.571 157.098 139.571 154.41C139.571 151.723 141.679 149.615 145.579 149.615C149.478 149.615 151.386 151.543 151.596 154.305H154.358C154.147 150.648 151.354 147.391 145.621 147.391C139.887 147.391 136.842 150.553 136.842 154.516C136.842 158.731 139.677 160.639 143.544 161.282L147.233 161.861C150.311 162.399 152.028 163.653 152.028 166.298C152.028 169.46 149.489 171.42 145.621 171.42C141.753 171.42 139.097 169.492 138.886 166.151H136.167C136.378 170.493 139.677 173.644 145.579 173.644Z" fill="white"/>
<path d="M158.752 147.928V173.138H174.951V170.809H161.439V161.25H173.897V158.952H161.439V150.289H174.951V147.96L158.752 147.928Z" fill="white"/>
<path d="M26.1896 95.9069L11.5928 120.147L26.179 113.528L26.1896 95.9069Z" fill="white"/>
<path d="M26.1896 113.476L11.5928 120.147L26.179 128.768L26.1896 113.476Z" fill="#63688E"/>
<path d="M40.7777 120.147L26.1914 95.9069V113.486L40.7777 120.147Z" fill="#63688E"/>
<path d="M26.1914 128.715L40.7777 120.147L26.1914 113.528V128.715Z" fill="#464A75"/>
<path d="M11.5928 122.866L26.179 143.418V131.477L11.5928 122.866Z" fill="white"/>
<path d="M26.1914 131.477V143.418L40.7777 122.866L26.1914 131.477Z" fill="#63688E"/>
<path d="M65.1636 123.361C65.1583 123.528 65.09 123.685 64.9725 123.803C64.8551 123.92 64.6973 123.989 64.5313 123.994H52.8643C53.1594 126.766 55.32 129.474 58.3764 129.474C59.3271 129.513 60.2714 129.303 61.1161 128.865C61.9608 128.427 62.6765 127.776 63.1928 126.976C63.2477 126.891 63.3222 126.819 63.4102 126.768C63.4981 126.717 63.597 126.687 63.6987 126.681C63.7756 126.678 63.8523 126.691 63.9239 126.719C63.9956 126.748 64.0607 126.79 64.1151 126.845C64.1695 126.899 64.2121 126.964 64.2402 127.036C64.2683 127.107 64.2813 127.184 64.2783 127.261C64.2808 127.366 64.2514 127.469 64.194 127.556C63.5775 128.531 62.7154 129.327 61.6943 129.863C60.6732 130.4 59.5289 130.658 58.3764 130.612C54.4452 130.612 51.6523 127.103 51.6523 123.34C51.6523 119.578 54.4452 116.089 58.3764 116.089C62.3075 116.089 65.1636 119.599 65.1636 123.361ZM63.8989 122.803C63.9315 122.058 63.8129 121.314 63.5503 120.617C63.2877 119.919 62.8866 119.282 62.371 118.743C61.8555 118.204 61.2362 117.776 60.5506 117.483C59.865 117.19 59.1272 117.039 58.3816 117.039C57.6361 117.039 56.8983 117.19 56.2126 117.483C55.527 117.776 54.9078 118.204 54.3922 118.743C53.8767 119.282 53.4756 119.919 53.213 120.617C52.9504 121.314 52.8318 122.058 52.8643 122.803H63.8989Z" fill="white"/>
<path d="M79.3388 116.279C79.4935 116.287 79.6395 116.354 79.7471 116.465C79.8547 116.577 79.9159 116.725 79.9184 116.88C79.9212 116.958 79.9083 117.035 79.8805 117.108C79.8526 117.181 79.8104 117.247 79.7563 117.303C79.7022 117.36 79.6373 117.404 79.5656 117.435C79.4938 117.465 79.4167 117.481 79.3388 117.481H76.177V129.811C76.1715 129.967 76.1058 130.115 75.9938 130.223C75.8817 130.331 75.732 130.391 75.5762 130.391C75.4231 130.386 75.2775 130.324 75.1682 130.216C75.0589 130.109 74.9939 129.964 74.9861 129.811V117.481H71.9824C71.9044 117.481 71.8273 117.465 71.7556 117.435C71.6839 117.404 71.619 117.36 71.5649 117.303C71.5108 117.247 71.4685 117.181 71.4406 117.108C71.4128 117.035 71.3999 116.958 71.4027 116.88C71.4026 116.724 71.463 116.574 71.5712 116.462C71.6793 116.35 71.8267 116.285 71.9824 116.279H74.9861V111.821C75.0053 111.677 75.0763 111.544 75.1858 111.448C75.2953 111.353 75.4359 111.3 75.5815 111.3C75.7271 111.3 75.8677 111.353 75.9773 111.448C76.0868 111.544 76.1578 111.677 76.177 111.821V116.279H79.3388Z" fill="white"/>
<path d="M98.3418 122.255V129.696C98.3507 129.767 98.3446 129.839 98.3239 129.908C98.3033 129.976 98.2685 130.04 98.2219 130.095C98.1753 130.149 98.1179 130.193 98.0532 130.225C97.9886 130.256 97.9182 130.273 97.8465 130.275C97.5092 130.275 97.3511 130.033 97.3511 129.696V122.255C97.3511 119.736 95.8967 117.228 93.0828 117.228C89.4889 117.228 87.8869 120.389 88.0766 123.551C88.0766 123.646 88.0766 124.015 88.0766 124.068V129.664C88.0766 130.001 87.9186 130.244 87.5813 130.244C87.244 130.244 87.086 130.001 87.086 129.664V105.255C87.0771 105.184 87.0832 105.112 87.1039 105.043C87.1245 104.974 87.1593 104.911 87.2059 104.856C87.2525 104.802 87.3099 104.757 87.3746 104.726C87.4392 104.695 87.5096 104.678 87.5813 104.676C87.6525 104.679 87.7221 104.698 87.786 104.729C87.8499 104.761 87.9067 104.805 87.953 104.859C87.9993 104.914 88.0341 104.977 88.0554 105.045C88.0766 105.113 88.0839 105.184 88.0766 105.255V119.093C88.5648 118.217 89.2699 117.48 90.1243 116.954C90.9787 116.428 91.9538 116.131 92.9563 116.09C96.3816 116.09 98.3524 119.093 98.3524 122.276L98.3418 122.255Z" fill="white"/>
<path d="M119.378 123.361C119.372 123.528 119.304 123.685 119.187 123.803C119.069 123.92 118.911 123.989 118.745 123.994H107.089C107.384 126.766 109.545 129.474 112.601 129.474C113.552 129.512 114.495 129.301 115.34 128.863C116.184 128.425 116.9 127.775 117.417 126.976C117.472 126.89 117.546 126.818 117.634 126.767C117.722 126.715 117.821 126.686 117.923 126.681C118 126.678 118.077 126.691 118.149 126.719C118.22 126.748 118.285 126.79 118.34 126.845C118.394 126.899 118.437 126.964 118.465 127.036C118.493 127.107 118.506 127.184 118.503 127.261C118.505 127.366 118.476 127.469 118.419 127.556C117.801 128.53 116.938 129.324 115.917 129.86C114.897 130.396 113.753 130.656 112.601 130.612C108.67 130.612 105.877 127.103 105.877 123.34C105.877 119.578 108.67 116.089 112.601 116.089C116.532 116.089 119.378 119.599 119.378 123.361ZM118.134 122.803C118.167 122.058 118.048 121.314 117.785 120.617C117.523 119.919 117.122 119.282 116.606 118.743C116.091 118.204 115.471 117.776 114.786 117.483C114.1 117.19 113.362 117.039 112.617 117.039C111.871 117.039 111.133 117.19 110.448 117.483C109.762 117.776 109.143 118.204 108.627 118.743C108.112 119.282 107.711 119.919 107.448 120.617C107.186 121.314 107.067 122.058 107.1 122.803H118.134Z" fill="white"/>
<path d="M133.732 116.88C133.738 116.959 133.728 117.039 133.702 117.114C133.676 117.189 133.636 117.258 133.582 117.317C133.529 117.376 133.465 117.424 133.393 117.457C133.321 117.491 133.243 117.51 133.163 117.512C129.749 118.018 128.178 120.811 128.178 124.078V129.632C128.159 129.777 128.088 129.909 127.979 130.005C127.869 130.101 127.728 130.154 127.583 130.154C127.437 130.154 127.297 130.101 127.187 130.005C127.078 129.909 127.007 129.777 126.987 129.632V116.88C127.007 116.736 127.078 116.603 127.187 116.507C127.297 116.411 127.437 116.359 127.583 116.359C127.728 116.359 127.869 116.411 127.979 116.507C128.088 116.603 128.159 116.736 128.178 116.88V119.483C128.681 118.601 129.389 117.854 130.242 117.304C131.095 116.753 132.068 116.416 133.079 116.321C133.239 116.312 133.396 116.365 133.518 116.47C133.639 116.574 133.716 116.721 133.732 116.88Z" fill="white"/>
<path d="M152.915 123.361C152.909 123.528 152.841 123.685 152.723 123.803C152.606 123.92 152.448 123.989 152.282 123.994H140.615C140.91 126.766 143.071 129.474 146.127 129.474C147.078 129.513 148.022 129.303 148.867 128.865C149.712 128.427 150.427 127.776 150.944 126.976C150.999 126.891 151.073 126.819 151.161 126.768C151.249 126.717 151.348 126.687 151.45 126.681C151.527 126.678 151.603 126.691 151.675 126.719C151.747 126.748 151.812 126.79 151.866 126.845C151.921 126.899 151.963 126.964 151.991 127.036C152.019 127.107 152.032 127.184 152.029 127.261C152.032 127.366 152.002 127.469 151.945 127.556C151.328 128.531 150.466 129.327 149.445 129.863C148.424 130.4 147.28 130.658 146.127 130.612C142.196 130.612 139.403 127.103 139.403 123.34C139.403 119.578 142.196 116.089 146.127 116.089C150.058 116.089 152.915 119.599 152.915 123.361ZM151.66 122.803C151.66 121.341 151.08 119.939 150.046 118.905C149.012 117.872 147.61 117.291 146.148 117.291C144.687 117.291 143.284 117.872 142.251 118.905C141.217 119.939 140.636 121.341 140.636 122.803H151.66Z" fill="white"/>
<path d="M171.864 116.985V129.769C171.859 129.925 171.793 130.072 171.681 130.181C171.569 130.289 171.419 130.349 171.263 130.349C171.186 130.352 171.109 130.339 171.037 130.311C170.964 130.283 170.899 130.241 170.843 130.186C170.788 130.132 170.745 130.067 170.715 129.995C170.686 129.924 170.672 129.847 170.673 129.769V127.366C170.252 128.317 169.572 129.13 168.711 129.713C167.85 130.296 166.843 130.626 165.804 130.665C162.326 130.665 160.397 127.661 160.397 124.479V116.985C160.403 116.831 160.467 116.686 160.577 116.578C160.687 116.47 160.834 116.408 160.988 116.406C161.142 116.411 161.289 116.473 161.4 116.58C161.511 116.687 161.578 116.831 161.588 116.985V124.468C161.588 126.987 163.011 129.495 165.804 129.495C169.735 129.495 170.663 125.828 170.663 121.77V117.006C170.668 116.851 170.734 116.703 170.846 116.595C170.958 116.487 171.108 116.427 171.263 116.427C171.412 116.426 171.555 116.483 171.662 116.585C171.77 116.687 171.835 116.827 171.843 116.975L171.864 116.985Z" fill="white"/>
<path d="M201.299 122.255V129.738C201.294 129.893 201.228 130.041 201.116 130.149C201.004 130.257 200.854 130.318 200.699 130.317C200.621 130.32 200.544 130.307 200.472 130.279C200.4 130.251 200.334 130.209 200.279 130.155C200.223 130.101 200.18 130.035 200.151 129.964C200.121 129.892 200.107 129.815 200.108 129.738V122.255C200.108 119.747 198.686 117.291 195.893 117.291C192.383 117.291 191.024 121.043 191.024 123.983V129.738C191.021 129.892 190.957 130.04 190.847 130.148C190.737 130.257 190.588 130.317 190.433 130.317C190.356 130.32 190.278 130.307 190.205 130.279C190.132 130.252 190.066 130.209 190.01 130.155C189.954 130.101 189.909 130.036 189.879 129.965C189.848 129.893 189.833 129.816 189.833 129.738V122.255C189.833 119.747 188.442 117.291 185.617 117.291C182.076 117.291 180.6 120.084 180.716 123.804V129.738C180.697 129.882 180.626 130.014 180.517 130.11C180.407 130.206 180.266 130.259 180.121 130.259C179.975 130.259 179.835 130.206 179.725 130.11C179.616 130.014 179.545 129.882 179.525 129.738V116.985C179.545 116.841 179.616 116.709 179.725 116.613C179.835 116.517 179.975 116.464 180.121 116.464C180.266 116.464 180.407 116.517 180.517 116.613C180.626 116.709 180.697 116.841 180.716 116.985V119.093C181.195 118.202 181.904 117.456 182.77 116.933C183.636 116.41 184.627 116.129 185.638 116.121C186.759 116.12 187.85 116.482 188.749 117.153C189.647 117.823 190.305 118.767 190.623 119.841C191.034 118.769 191.754 117.843 192.693 117.181C193.631 116.518 194.745 116.149 195.893 116.121C199.339 116.121 201.289 119.093 201.289 122.265L201.299 122.255Z" fill="white"/>
<path d="M77.1456 30.5979H79.2656L80.2456 41.3579H80.2856L81.3256 30.5979H83.7256L84.7656 41.3579H84.8056L85.7856 30.5979H87.6856L86.2656 44.5979H83.5256L82.5256 35.1579H82.4856L81.4856 44.5979H78.5656L77.1456 30.5979ZM91.9784 44.7979C90.8984 44.7979 90.0717 44.4913 89.4984 43.8779C88.9251 43.2646 88.6384 42.3979 88.6384 41.2779V33.9179C88.6384 32.7979 88.9251 31.9313 89.4984 31.3179C90.0717 30.7046 90.8984 30.3979 91.9784 30.3979C93.0584 30.3979 93.8851 30.7046 94.4584 31.3179C95.0317 31.9313 95.3184 32.7979 95.3184 33.9179V41.2779C95.3184 42.3979 95.0317 43.2646 94.4584 43.8779C93.8851 44.4913 93.0584 44.7979 91.9784 44.7979ZM91.9784 42.7979C92.7384 42.7979 93.1184 42.3379 93.1184 41.4179V33.7779C93.1184 32.8579 92.7384 32.3979 91.9784 32.3979C91.2184 32.3979 90.8384 32.8579 90.8384 33.7779V41.4179C90.8384 42.3379 91.2184 42.7979 91.9784 42.7979ZM96.8062 30.5979H100.066C101.2 30.5979 102.026 30.8646 102.546 31.3979C103.066 31.9179 103.326 32.7246 103.326 33.8179V34.6779C103.326 36.1313 102.846 37.0513 101.886 37.4379V37.4779C102.42 37.6379 102.793 37.9646 103.006 38.4579C103.233 38.9513 103.346 39.6113 103.346 40.4379V42.8979C103.346 43.2979 103.36 43.6246 103.386 43.8779C103.413 44.1179 103.48 44.3579 103.586 44.5979H101.346C101.266 44.3713 101.213 44.1579 101.186 43.9579C101.16 43.7579 101.146 43.3979 101.146 42.8779V40.3179C101.146 39.6779 101.04 39.2313 100.826 38.9779C100.626 38.7246 100.273 38.5979 99.7662 38.5979H99.0062V44.5979H96.8062V30.5979ZM99.8062 36.5979C100.246 36.5979 100.573 36.4846 100.786 36.2579C101.013 36.0313 101.126 35.6513 101.126 35.1179V34.0379C101.126 33.5313 101.033 33.1646 100.846 32.9379C100.673 32.7113 100.393 32.5979 100.006 32.5979H99.0062V36.5979H99.8062ZM104.873 30.5979H107.073V36.4979L109.873 30.5979H112.073L109.453 35.7379L112.113 44.5979H109.813L107.953 38.3579L107.073 40.1379V44.5979H104.873V30.5979ZM115.877 44.7979C114.81 44.7979 114.004 44.4979 113.457 43.8979C112.91 43.2846 112.637 42.4113 112.637 41.2779V40.4779H114.717V41.4379C114.717 42.3446 115.097 42.7979 115.857 42.7979C116.23 42.7979 116.51 42.6913 116.697 42.4779C116.897 42.2513 116.997 41.8913 116.997 41.3979C116.997 40.8113 116.864 40.2979 116.597 39.8579C116.33 39.4046 115.837 38.8646 115.117 38.2379C114.21 37.4379 113.577 36.7179 113.217 36.0779C112.857 35.4246 112.677 34.6913 112.677 33.8779C112.677 32.7713 112.957 31.9179 113.517 31.3179C114.077 30.7046 114.89 30.3979 115.957 30.3979C117.01 30.3979 117.804 30.7046 118.337 31.3179C118.884 31.9179 119.157 32.7846 119.157 33.9179V34.4979H117.077V33.7779C117.077 33.2979 116.984 32.9513 116.797 32.7379C116.61 32.5113 116.337 32.3979 115.977 32.3979C115.244 32.3979 114.877 32.8446 114.877 33.7379C114.877 34.2446 115.01 34.7179 115.277 35.1579C115.557 35.5979 116.057 36.1313 116.777 36.7579C117.697 37.5579 118.33 38.2846 118.677 38.9379C119.024 39.5913 119.197 40.3579 119.197 41.2379C119.197 42.3846 118.91 43.2646 118.337 43.8779C117.777 44.4913 116.957 44.7979 115.877 44.7979ZM126.842 44.7979C125.762 44.7979 124.935 44.4913 124.362 43.8779C123.788 43.2646 123.502 42.3979 123.502 41.2779V33.9179C123.502 32.7979 123.788 31.9313 124.362 31.3179C124.935 30.7046 125.762 30.3979 126.842 30.3979C127.922 30.3979 128.748 30.7046 129.322 31.3179C129.895 31.9313 130.182 32.7979 130.182 33.9179V41.2779C130.182 42.3979 129.895 43.2646 129.322 43.8779C128.748 44.4913 127.922 44.7979 126.842 44.7979ZM126.842 42.7979C127.602 42.7979 127.982 42.3379 127.982 41.4179V33.7779C127.982 32.8579 127.602 32.3979 126.842 32.3979C126.082 32.3979 125.702 32.8579 125.702 33.7779V41.4179C125.702 42.3379 126.082 42.7979 126.842 42.7979ZM131.669 30.5979H134.429L136.569 38.9779H136.609V30.5979H138.569V44.5979H136.309L133.669 34.3779H133.629V44.5979H131.669V30.5979ZM58.4273 54.5979H61.5673L62.9673 64.6179H63.0073L64.4073 54.5979H67.5473V68.5979H65.4673V57.9979H65.4273L63.8273 68.5979H61.9873L60.3873 57.9979H60.3473V68.5979H58.4273V54.5979ZM72.389 68.7979C71.3224 68.7979 70.509 68.4979 69.949 67.8979C69.389 67.2846 69.109 66.4113 69.109 65.2779V54.5979H71.309V65.4379C71.309 65.9179 71.4024 66.2646 71.589 66.4779C71.789 66.6913 72.069 66.7979 72.429 66.7979C72.789 66.7979 73.0624 66.6913 73.249 66.4779C73.449 66.2646 73.549 65.9179 73.549 65.4379V54.5979H75.669V65.2779C75.669 66.4113 75.389 67.2846 74.829 67.8979C74.269 68.4979 73.4557 68.7979 72.389 68.7979ZM77.2359 54.5979H79.4359V66.5979H83.0559V68.5979H77.2359V54.5979ZM84.2684 56.5979H81.9684V54.5979H88.7684V56.5979H86.4684V68.5979H84.2684V56.5979ZM89.8335 54.5979H92.0335V68.5979H89.8335V54.5979ZM93.6812 54.5979H96.9212C98.0145 54.5979 98.8345 54.8913 99.3812 55.4779C99.9279 56.0646 100.201 56.9246 100.201 58.0579V59.4379C100.201 60.5713 99.9279 61.4313 99.3812 62.0179C98.8345 62.6046 98.0145 62.8979 96.9212 62.8979H95.8812V68.5979H93.6812V54.5979ZM96.9212 60.8979C97.2812 60.8979 97.5479 60.7979 97.7212 60.5979C97.9079 60.3979 98.0012 60.0579 98.0012 59.5779V57.9179C98.0012 57.4379 97.9079 57.0979 97.7212 56.8979C97.5479 56.6979 97.2812 56.5979 96.9212 56.5979H95.8812V60.8979H96.9212ZM101.396 54.5979H103.596V66.5979H107.216V68.5979H101.396V54.5979ZM108.271 54.5979H114.271V56.5979H110.471V60.2979H113.491V62.2979H110.471V66.5979H114.271V68.5979H108.271V54.5979ZM121.84 68.7979C120.786 68.7979 119.98 68.4979 119.42 67.8979C118.873 67.2979 118.6 66.4513 118.6 65.3579V57.8379C118.6 56.7446 118.873 55.8979 119.42 55.2979C119.98 54.6979 120.786 54.3979 121.84 54.3979C122.893 54.3979 123.693 54.6979 124.24 55.2979C124.8 55.8979 125.08 56.7446 125.08 57.8379V59.3179H123V57.6979C123 56.8313 122.633 56.3979 121.9 56.3979C121.166 56.3979 120.8 56.8313 120.8 57.6979V65.5179C120.8 66.3713 121.166 66.7979 121.9 66.7979C122.633 66.7979 123 66.3713 123 65.5179V63.3779H125.08V65.3579C125.08 66.4513 124.8 67.2979 124.24 67.8979C123.693 68.4979 122.893 68.7979 121.84 68.7979ZM126.396 54.5979H128.596V60.2979H130.956V54.5979H133.156V68.5979H130.956V62.2979H128.596V68.5979H126.396V54.5979ZM136.494 54.5979H139.474L141.754 68.5979H139.554L139.154 65.8179V65.8579H136.654L136.254 68.5979H134.214L136.494 54.5979ZM138.894 63.9579L137.914 57.0379H137.874L136.914 63.9579H138.894ZM142.822 54.5979H145.022V68.5979H142.822V54.5979ZM146.669 54.5979H149.429L151.569 62.9779H151.609V54.5979H153.569V68.5979H151.309L148.669 58.3779H148.629V68.5979H146.669V54.5979ZM158.065 68.7979C156.998 68.7979 156.191 68.4979 155.645 67.8979C155.098 67.2846 154.825 66.4113 154.825 65.2779V64.4779H156.905V65.4379C156.905 66.3446 157.285 66.7979 158.045 66.7979C158.418 66.7979 158.698 66.6913 158.885 66.4779C159.085 66.2513 159.185 65.8913 159.185 65.3979C159.185 64.8113 159.051 64.2979 158.785 63.8579C158.518 63.4046 158.025 62.8646 157.305 62.2379C156.398 61.4379 155.765 60.7179 155.405 60.0779C155.045 59.4246 154.865 58.6913 154.865 57.8779C154.865 56.7713 155.145 55.9179 155.705 55.3179C156.265 54.7046 157.078 54.3979 158.145 54.3979C159.198 54.3979 159.991 54.7046 160.525 55.3179C161.071 55.9179 161.345 56.7846 161.345 57.9179V58.4979H159.265V57.7779C159.265 57.2979 159.171 56.9513 158.985 56.7379C158.798 56.5113 158.525 56.3979 158.165 56.3979C157.431 56.3979 157.065 56.8446 157.065 57.7379C157.065 58.2446 157.198 58.7179 157.465 59.1579C157.745 59.5979 158.245 60.1313 158.965 60.7579C159.885 61.5579 160.518 62.2846 160.865 62.9379C161.211 63.5913 161.385 64.3579 161.385 65.2379C161.385 66.3846 161.098 67.2646 160.525 67.8779C159.965 68.4913 159.145 68.7979 158.065 68.7979Z" fill="white"/>
</svg>
