<svg width="215" height="215" viewBox="0 0 215 215" fill="none" xmlns="http://www.w3.org/2000/svg">
<path d="M12.3139 163.774V202.194H49.2554C50.8884 202.194 52.4544 202.868 53.6091 204.069C54.7637 205.27 55.4124 206.899 55.4124 208.597C55.4124 210.295 54.7637 211.924 53.6091 213.125C52.4544 214.325 50.8884 215 49.2554 215H6.15693C4.52401 215 2.95797 214.325 1.80333 213.125C0.648678 211.924 0 210.295 0 208.597V163.774C0 162.076 0.648678 160.447 1.80333 159.247C2.95797 158.046 4.52401 157.371 6.15693 157.371C7.78985 157.371 9.35589 158.046 10.5105 159.247C11.6652 160.447 12.3139 162.076 12.3139 163.774Z" fill="white"/>
<path d="M163.774 202.194H202.194V163.774C202.194 162.076 202.868 160.447 204.069 159.247C205.27 158.046 206.899 157.371 208.597 157.371C210.295 157.371 211.924 158.046 213.125 159.247C214.325 160.447 215 162.076 215 163.774V208.597C215 210.295 214.325 211.924 213.125 213.125C211.924 214.325 210.295 215 208.597 215H163.774C162.076 215 160.447 214.325 159.247 213.125C158.046 211.924 157.371 210.295 157.371 208.597C157.371 206.899 158.046 205.27 159.247 204.069C160.447 202.868 162.076 202.194 163.774 202.194Z" fill="white"/>
<path d="M202.194 12.8064H163.774C162.076 12.8064 160.447 12.1318 159.247 10.931C158.046 9.73016 157.371 8.10144 157.371 6.40321C157.371 4.70497 158.046 3.07625 159.247 1.87542C160.447 0.674584 162.076 0 163.774 0H208.597C210.295 0 211.924 0.674584 213.125 1.87542C214.325 3.07625 215 4.70497 215 6.40321V51.2257C215 52.9239 214.325 54.5526 213.125 55.7534C211.924 56.9543 210.295 57.6289 208.597 57.6289C206.899 57.6289 205.27 56.9543 204.069 55.7534C202.868 54.5526 202.194 52.9239 202.194 51.2257V12.8064Z" fill="white"/>
<path d="M12.3139 12.8064V51.2257C12.3139 52.9239 11.6652 54.5526 10.5105 55.7534C9.35589 56.9543 7.78985 57.6289 6.15693 57.6289C4.52401 57.6289 2.95797 56.9543 1.80333 55.7534C0.648678 54.5526 0 52.9239 0 51.2257V6.40321C0 4.70497 0.648678 3.07625 1.80333 1.87542C2.95797 0.674584 4.52401 0 6.15693 0H49.2554C50.8884 0 52.4544 0.674584 53.6091 1.87542C54.7637 3.07625 55.4124 4.70497 55.4124 6.40321C55.4124 8.10144 54.7637 9.73016 53.6091 10.931C52.4544 12.1318 50.8884 12.8064 49.2554 12.8064H12.3139Z" fill="white"/>
<path d="M161.905 86.4433H53.1056C50.1921 86.4433 47.3978 87.5837 45.3366 89.6139C43.2755 91.6441 42.1161 94.398 42.1133 97.2705V153.162C42.1105 154.587 42.3928 155.999 42.9439 157.316C43.4951 158.633 44.3043 159.83 45.3253 160.839C46.3464 161.848 47.5591 162.648 48.8941 163.194C50.2291 163.74 51.6603 164.021 53.1056 164.021H161.905C164.817 164.021 167.611 162.88 169.67 160.849C171.729 158.819 172.886 156.065 172.886 153.193V97.3018C172.891 95.8774 172.61 94.466 172.06 93.1488C171.51 91.8315 170.701 90.6342 169.681 89.6255C168.661 88.6168 167.449 87.8166 166.115 87.2705C164.78 86.7244 163.35 86.4433 161.905 86.4433ZM81.6304 100.228C84.0136 100.226 86.344 100.921 88.327 102.224C90.3099 103.528 91.8563 105.382 92.7707 107.551C93.6852 109.721 93.9266 112.11 93.4645 114.415C93.0024 116.72 91.8574 118.838 90.1744 120.502C88.4914 122.166 86.3459 123.3 84.0091 123.762C81.6723 124.224 79.2491 123.992 77.0459 123.096C74.8426 122.2 72.9583 120.68 71.6309 118.729C70.3036 116.777 69.5929 114.481 69.5887 112.132C69.6054 108.988 70.8794 105.978 73.1341 103.755C75.3887 101.532 78.4419 100.276 81.6304 100.259V100.228ZM97.4351 150.194C95.811 150.151 94.1952 149.948 92.6121 149.588C90.4423 149.135 88.2357 148.877 86.0188 148.815H77.2843C75.0675 148.876 72.8607 149.135 70.6911 149.588C66.5571 150.351 62.9954 150.455 61.0662 148.344C59.8231 146.754 59.2225 144.765 59.3808 142.763C59.4004 138.095 61.2935 133.625 64.6464 130.329C67.9992 127.033 72.5391 125.18 77.2738 125.175H86.0188C90.7477 125.183 95.2804 127.039 98.6243 130.335C101.968 133.632 103.85 138.101 103.859 142.763C103.859 148.898 100.361 150.194 97.4351 150.194ZM152.895 143.14H115.423V137.977H152.895V143.14ZM152.895 127.808H115.423V122.656H152.895V127.808ZM152.895 112.539H115.423V107.345H152.895V112.539Z" fill="white"/>
<path d="M86.82 41.6804H89.58L91.72 50.0604H91.76V41.6804H93.72V55.6804H91.46L88.82 45.4604H88.78V55.6804H86.82V41.6804ZM98.5352 55.8804C97.4552 55.8804 96.6285 55.5738 96.0552 54.9604C95.4818 54.3471 95.1952 53.4804 95.1952 52.3604V45.0004C95.1952 43.8804 95.4818 43.0138 96.0552 42.4004C96.6285 41.7871 97.4552 41.4804 98.5352 41.4804C99.6152 41.4804 100.442 41.7871 101.015 42.4004C101.588 43.0138 101.875 43.8804 101.875 45.0004V52.3604C101.875 53.4804 101.588 54.3471 101.015 54.9604C100.442 55.5738 99.6152 55.8804 98.5352 55.8804ZM98.5352 53.8804C99.2952 53.8804 99.6752 53.4204 99.6752 52.5004V44.8604C99.6752 43.9404 99.2952 43.4804 98.5352 43.4804C97.7752 43.4804 97.3952 43.9404 97.3952 44.8604V52.5004C97.3952 53.4204 97.7752 53.8804 98.5352 53.8804ZM106.566 41.6804H108.766V47.5804L111.566 41.6804H113.766L111.146 46.8204L113.806 55.6804H111.506L109.646 49.4404L108.766 51.2204V55.6804H106.566V41.6804ZM116.867 49.7204L114.207 41.6804H116.547L118.047 46.8204H118.087L119.587 41.6804H121.727L119.067 49.7204V55.6804H116.867V49.7204ZM125.467 55.8804C124.414 55.8804 123.607 55.5804 123.047 54.9804C122.5 54.3804 122.227 53.5338 122.227 52.4404V44.9204C122.227 43.8271 122.5 42.9804 123.047 42.3804C123.607 41.7804 124.414 41.4804 125.467 41.4804C126.52 41.4804 127.32 41.7804 127.867 42.3804C128.427 42.9804 128.707 43.8271 128.707 44.9204V46.4004H126.627V44.7804C126.627 43.9138 126.26 43.4804 125.527 43.4804C124.794 43.4804 124.427 43.9138 124.427 44.7804V52.6004C124.427 53.4538 124.794 53.8804 125.527 53.8804C126.26 53.8804 126.627 53.4538 126.627 52.6004V50.4604H128.707V52.4404C128.707 53.5338 128.427 54.3804 127.867 54.9804C127.32 55.5804 126.52 55.8804 125.467 55.8804Z" fill="white"/>
</svg>
